<mxfile host="app.diagrams.net" agent="Mozilla/5.0 (Windows NT 10.0; Win64; x64) AppleWebKit/537.36 (KHTML, like Gecko) Chrome/134.0.0.0 Safari/537.36" version="26.1.3">
  <diagram name="Página-1" id="ral7cxmUA2murKZYN2fO">
    <mxGraphModel grid="1" page="1" gridSize="10" guides="1" tooltips="1" connect="1" arrows="1" fold="1" pageScale="1" pageWidth="827" pageHeight="1169" math="0" shadow="0">
      <root>
        <mxCell id="0" />
        <mxCell id="1" parent="0" />
        <mxCell id="jeG6wxMHg7uKZulIMG_E-2" value="&lt;font&gt;&lt;u&gt;ID&lt;/u&gt;&lt;/font&gt;" style="ellipse;whiteSpace=wrap;html=1;strokeColor=default;" vertex="1" parent="1">
          <mxGeometry x="299" y="1196" width="70" height="45" as="geometry" />
        </mxCell>
        <mxCell id="jeG6wxMHg7uKZulIMG_E-3" value="Código_S" style="ellipse;whiteSpace=wrap;html=1;" vertex="1" parent="1">
          <mxGeometry x="472.75" y="1117.5" width="95" height="45" as="geometry" />
        </mxCell>
        <mxCell id="jeG6wxMHg7uKZulIMG_E-4" value="Tipo_S" style="ellipse;whiteSpace=wrap;html=1;" vertex="1" parent="1">
          <mxGeometry x="242.75" y="1110" width="70" height="45" as="geometry" />
        </mxCell>
        <mxCell id="jeG6wxMHg7uKZulIMG_E-5" value="Cap" style="ellipse;whiteSpace=wrap;html=1;" vertex="1" parent="1">
          <mxGeometry x="420.25" y="1196" width="70" height="45" as="geometry" />
        </mxCell>
        <mxCell id="jeG6wxMHg7uKZulIMG_E-7" value="&lt;u&gt;ID&lt;/u&gt;" style="ellipse;whiteSpace=wrap;html=1;" vertex="1" parent="1">
          <mxGeometry x="265" y="772" width="70" height="45" as="geometry" />
        </mxCell>
        <mxCell id="jeG6wxMHg7uKZulIMG_E-8" value="DD/H/Sala" style="ellipse;whiteSpace=wrap;html=1;" vertex="1" parent="1">
          <mxGeometry x="187.5" y="957.08" width="70" height="45" as="geometry" />
        </mxCell>
        <mxCell id="jeG6wxMHg7uKZulIMG_E-9" value="NumMaxIns" style="ellipse;whiteSpace=wrap;html=1;" vertex="1" parent="1">
          <mxGeometry x="430" y="840" width="100" height="45" as="geometry" />
        </mxCell>
        <mxCell id="jeG6wxMHg7uKZulIMG_E-10" value="Desc" style="ellipse;whiteSpace=wrap;html=1;" vertex="1" parent="1">
          <mxGeometry x="287.5" y="840" width="70" height="45" as="geometry" />
        </mxCell>
        <mxCell id="jeG6wxMHg7uKZulIMG_E-13" value="Nom" style="ellipse;whiteSpace=wrap;html=1;" vertex="1" parent="1">
          <mxGeometry x="475" y="772" width="70" height="45" as="geometry" />
        </mxCell>
        <mxCell id="xQfsUMhxnL9DLXqVLIj6-1" value="Usuarios" style="rounded=1;whiteSpace=wrap;html=1;" vertex="1" parent="1">
          <mxGeometry x="329" y="498" width="120" height="55" as="geometry" />
        </mxCell>
        <mxCell id="xQfsUMhxnL9DLXqVLIj6-2" value="Ciclo" style="ellipse;whiteSpace=wrap;html=1;" vertex="1" parent="1">
          <mxGeometry x="191.5" y="438" width="120" height="80" as="geometry" />
        </mxCell>
        <mxCell id="xQfsUMhxnL9DLXqVLIj6-3" value="Matrícula" style="ellipse;whiteSpace=wrap;html=1;" vertex="1" parent="1">
          <mxGeometry x="474" y="443" width="120" height="70" as="geometry" />
        </mxCell>
        <mxCell id="xQfsUMhxnL9DLXqVLIj6-4" value="&lt;u&gt;ID&lt;/u&gt;" style="ellipse;whiteSpace=wrap;html=1;" vertex="1" parent="1">
          <mxGeometry x="333" y="400" width="120" height="80" as="geometry" />
        </mxCell>
        <mxCell id="GX7gcYCu6-iP_hDTX00v-15" value="Dirige" style="rhombus;whiteSpace=wrap;html=1;" vertex="1" parent="1">
          <mxGeometry x="187.5" y="623" width="170" height="80" as="geometry" />
        </mxCell>
        <mxCell id="GX7gcYCu6-iP_hDTX00v-17" value="Inscrito en" style="rhombus;whiteSpace=wrap;html=1;" vertex="1" parent="1">
          <mxGeometry x="445" y="623" width="152.5" height="80" as="geometry" />
        </mxCell>
        <mxCell id="_sEk2MZ4Kf5niJA4BnFR-5" value="Realizan" style="rhombus;whiteSpace=wrap;html=1;" vertex="1" parent="1">
          <mxGeometry x="296.25" y="940" width="200" height="80" as="geometry" />
        </mxCell>
        <mxCell id="jeG6wxMHg7uKZulIMG_E-6" value="&lt;font style=&quot;font-size: 14px;&quot;&gt;Actividades&lt;/font&gt;" style="rounded=1;whiteSpace=wrap;html=1;" vertex="1" parent="1">
          <mxGeometry x="345.25" y="772" width="120" height="60" as="geometry" />
        </mxCell>
        <mxCell id="jeG6wxMHg7uKZulIMG_E-1" value="Salas" style="rounded=1;whiteSpace=wrap;html=1;" vertex="1" parent="1">
          <mxGeometry x="332.75" y="1110" width="120" height="60" as="geometry" />
        </mxCell>
        <mxCell id="_sEk2MZ4Kf5niJA4BnFR-14" value="" style="endArrow=none;html=1;rounded=0;exitX=0.5;exitY=0;exitDx=0;exitDy=0;entryX=0.068;entryY=1.005;entryDx=0;entryDy=0;entryPerimeter=0;" edge="1" parent="1" source="GX7gcYCu6-iP_hDTX00v-15" target="xQfsUMhxnL9DLXqVLIj6-1">
          <mxGeometry width="50" height="50" relative="1" as="geometry">
            <mxPoint x="410" y="650" as="sourcePoint" />
            <mxPoint x="310" y="560" as="targetPoint" />
          </mxGeometry>
        </mxCell>
        <mxCell id="_sEk2MZ4Kf5niJA4BnFR-15" value="" style="endArrow=none;html=1;rounded=0;exitX=0.5;exitY=0;exitDx=0;exitDy=0;entryX=0.836;entryY=1.007;entryDx=0;entryDy=0;entryPerimeter=0;" edge="1" parent="1" source="GX7gcYCu6-iP_hDTX00v-17" target="xQfsUMhxnL9DLXqVLIj6-1">
          <mxGeometry width="50" height="50" relative="1" as="geometry">
            <mxPoint x="500" y="640" as="sourcePoint" />
            <mxPoint x="430" y="560" as="targetPoint" />
          </mxGeometry>
        </mxCell>
        <mxCell id="_sEk2MZ4Kf5niJA4BnFR-22" value="" style="endArrow=none;html=1;rounded=0;entryX=0.5;entryY=1;entryDx=0;entryDy=0;exitX=0.031;exitY=0.023;exitDx=0;exitDy=0;exitPerimeter=0;" edge="1" parent="1" source="jeG6wxMHg7uKZulIMG_E-6" target="GX7gcYCu6-iP_hDTX00v-15">
          <mxGeometry width="50" height="50" relative="1" as="geometry">
            <mxPoint x="440" y="770" as="sourcePoint" />
            <mxPoint x="490" y="720" as="targetPoint" />
          </mxGeometry>
        </mxCell>
        <mxCell id="_sEk2MZ4Kf5niJA4BnFR-23" value="" style="endArrow=none;html=1;rounded=0;entryX=0.5;entryY=1;entryDx=0;entryDy=0;exitX=0.957;exitY=0.012;exitDx=0;exitDy=0;exitPerimeter=0;" edge="1" parent="1" source="jeG6wxMHg7uKZulIMG_E-6" target="GX7gcYCu6-iP_hDTX00v-17">
          <mxGeometry width="50" height="50" relative="1" as="geometry">
            <mxPoint x="440" y="770" as="sourcePoint" />
            <mxPoint x="490" y="720" as="targetPoint" />
          </mxGeometry>
        </mxCell>
        <mxCell id="_sEk2MZ4Kf5niJA4BnFR-24" value="" style="endArrow=none;html=1;rounded=0;entryX=0.429;entryY=1;entryDx=0;entryDy=0;exitX=0.5;exitY=0;exitDx=0;exitDy=0;entryPerimeter=0;" edge="1" parent="1" source="_sEk2MZ4Kf5niJA4BnFR-5" target="jeG6wxMHg7uKZulIMG_E-6">
          <mxGeometry width="50" height="50" relative="1" as="geometry">
            <mxPoint x="440" y="900" as="sourcePoint" />
            <mxPoint x="490" y="850" as="targetPoint" />
          </mxGeometry>
        </mxCell>
        <mxCell id="_sEk2MZ4Kf5niJA4BnFR-25" value="" style="endArrow=none;html=1;rounded=0;entryX=0.5;entryY=1;entryDx=0;entryDy=0;exitX=0.522;exitY=0.001;exitDx=0;exitDy=0;exitPerimeter=0;" edge="1" parent="1" source="jeG6wxMHg7uKZulIMG_E-1" target="_sEk2MZ4Kf5niJA4BnFR-5">
          <mxGeometry width="50" height="50" relative="1" as="geometry">
            <mxPoint x="440" y="1090" as="sourcePoint" />
            <mxPoint x="490" y="1040" as="targetPoint" />
          </mxGeometry>
        </mxCell>
        <mxCell id="_sEk2MZ4Kf5niJA4BnFR-26" value="(1,1)" style="text;html=1;align=center;verticalAlign=middle;resizable=0;points=[];autosize=1;strokeColor=none;fillColor=none;" vertex="1" parent="1">
          <mxGeometry x="395.5" y="1048" width="50" height="30" as="geometry" />
        </mxCell>
        <mxCell id="_sEk2MZ4Kf5niJA4BnFR-28" value="(0,n)" style="text;html=1;align=center;verticalAlign=middle;resizable=0;points=[];autosize=1;strokeColor=none;fillColor=none;" vertex="1" parent="1">
          <mxGeometry x="395.5" y="898" width="50" height="30" as="geometry" />
        </mxCell>
        <mxCell id="_sEk2MZ4Kf5niJA4BnFR-29" value="N:1" style="text;html=1;align=center;verticalAlign=middle;resizable=0;points=[];autosize=1;strokeColor=none;fillColor=none;" vertex="1" parent="1">
          <mxGeometry x="500" y="965" width="40" height="30" as="geometry" />
        </mxCell>
        <mxCell id="_sEk2MZ4Kf5niJA4BnFR-30" value="(0,N)" style="text;html=1;align=center;verticalAlign=middle;resizable=0;points=[];autosize=1;strokeColor=none;fillColor=none;" vertex="1" parent="1">
          <mxGeometry x="315" y="708" width="50" height="30" as="geometry" />
        </mxCell>
        <mxCell id="_sEk2MZ4Kf5niJA4BnFR-31" value="(1,1)" style="text;html=1;align=center;verticalAlign=middle;resizable=0;points=[];autosize=1;strokeColor=none;fillColor=none;" vertex="1" parent="1">
          <mxGeometry x="215" y="588" width="50" height="30" as="geometry" />
        </mxCell>
        <mxCell id="_sEk2MZ4Kf5niJA4BnFR-32" value="1:N" style="text;html=1;align=center;verticalAlign=middle;resizable=0;points=[];autosize=1;strokeColor=none;fillColor=none;" vertex="1" parent="1">
          <mxGeometry x="127.5" y="648" width="40" height="30" as="geometry" />
        </mxCell>
        <mxCell id="_sEk2MZ4Kf5niJA4BnFR-33" value="(1,N)" style="text;html=1;align=center;verticalAlign=middle;resizable=0;points=[];autosize=1;strokeColor=none;fillColor=none;" vertex="1" parent="1">
          <mxGeometry x="445" y="698" width="50" height="30" as="geometry" />
        </mxCell>
        <mxCell id="_sEk2MZ4Kf5niJA4BnFR-34" value="(0,M)" style="text;html=1;align=center;verticalAlign=middle;resizable=0;points=[];autosize=1;strokeColor=none;fillColor=none;" vertex="1" parent="1">
          <mxGeometry x="533.5" y="594" width="50" height="30" as="geometry" />
        </mxCell>
        <mxCell id="_sEk2MZ4Kf5niJA4BnFR-35" value="1:M" style="text;html=1;align=center;verticalAlign=middle;resizable=0;points=[];autosize=1;strokeColor=none;fillColor=none;" vertex="1" parent="1">
          <mxGeometry x="607.5" y="651" width="40" height="30" as="geometry" />
        </mxCell>
        <mxCell id="j4U6q4avKXnPzG7Y78zl-1" value="" style="endArrow=none;html=1;rounded=0;exitX=1;exitY=0.5;exitDx=0;exitDy=0;entryX=0;entryY=0.5;entryDx=0;entryDy=0;" edge="1" parent="1" source="jeG6wxMHg7uKZulIMG_E-8" target="_sEk2MZ4Kf5niJA4BnFR-5">
          <mxGeometry width="50" height="50" relative="1" as="geometry">
            <mxPoint x="270" y="992.08" as="sourcePoint" />
            <mxPoint x="290" y="970" as="targetPoint" />
          </mxGeometry>
        </mxCell>
        <mxCell id="j4U6q4avKXnPzG7Y78zl-2" style="edgeStyle=orthogonalEdgeStyle;rounded=0;orthogonalLoop=1;jettySize=auto;html=1;exitX=0.5;exitY=1;exitDx=0;exitDy=0;" edge="1" parent="1" source="jeG6wxMHg7uKZulIMG_E-8" target="jeG6wxMHg7uKZulIMG_E-8">
          <mxGeometry relative="1" as="geometry" />
        </mxCell>
        <mxCell id="j4U6q4avKXnPzG7Y78zl-4" value="" style="endArrow=none;html=1;rounded=0;exitX=0.016;exitY=0.061;exitDx=0;exitDy=0;exitPerimeter=0;" edge="1" parent="1" source="xQfsUMhxnL9DLXqVLIj6-1" target="xQfsUMhxnL9DLXqVLIj6-2">
          <mxGeometry width="50" height="50" relative="1" as="geometry">
            <mxPoint x="320" y="500" as="sourcePoint" />
            <mxPoint x="312.75" y="490" as="targetPoint" />
          </mxGeometry>
        </mxCell>
        <mxCell id="j4U6q4avKXnPzG7Y78zl-5" value="" style="endArrow=none;html=1;rounded=0;entryX=0.5;entryY=1;entryDx=0;entryDy=0;exitX=0.5;exitY=0;exitDx=0;exitDy=0;" edge="1" parent="1" source="xQfsUMhxnL9DLXqVLIj6-1" target="xQfsUMhxnL9DLXqVLIj6-4">
          <mxGeometry width="50" height="50" relative="1" as="geometry">
            <mxPoint x="380" y="530" as="sourcePoint" />
            <mxPoint x="430" y="480" as="targetPoint" />
          </mxGeometry>
        </mxCell>
        <mxCell id="j4U6q4avKXnPzG7Y78zl-6" value="" style="endArrow=none;html=1;rounded=0;exitX=1;exitY=0.25;exitDx=0;exitDy=0;entryX=0;entryY=1;entryDx=0;entryDy=0;" edge="1" parent="1" source="xQfsUMhxnL9DLXqVLIj6-1" target="xQfsUMhxnL9DLXqVLIj6-3">
          <mxGeometry width="50" height="50" relative="1" as="geometry">
            <mxPoint x="460" y="510" as="sourcePoint" />
            <mxPoint x="500" y="480" as="targetPoint" />
          </mxGeometry>
        </mxCell>
        <mxCell id="j4U6q4avKXnPzG7Y78zl-7" value="" style="endArrow=none;html=1;rounded=0;exitX=0.997;exitY=0.56;exitDx=0;exitDy=0;exitPerimeter=0;entryX=0;entryY=0.5;entryDx=0;entryDy=0;" edge="1" parent="1" source="jeG6wxMHg7uKZulIMG_E-7" target="jeG6wxMHg7uKZulIMG_E-6">
          <mxGeometry width="50" height="50" relative="1" as="geometry">
            <mxPoint x="370" y="840" as="sourcePoint" />
            <mxPoint x="420" y="790" as="targetPoint" />
          </mxGeometry>
        </mxCell>
        <mxCell id="j4U6q4avKXnPzG7Y78zl-8" value="" style="endArrow=none;html=1;rounded=0;exitX=1;exitY=0;exitDx=0;exitDy=0;entryX=0.25;entryY=1;entryDx=0;entryDy=0;" edge="1" parent="1" source="jeG6wxMHg7uKZulIMG_E-10" target="jeG6wxMHg7uKZulIMG_E-6">
          <mxGeometry width="50" height="50" relative="1" as="geometry">
            <mxPoint x="360" y="860" as="sourcePoint" />
            <mxPoint x="410" y="810" as="targetPoint" />
          </mxGeometry>
        </mxCell>
        <mxCell id="j4U6q4avKXnPzG7Y78zl-9" value="" style="endArrow=none;html=1;rounded=0;exitX=0;exitY=0;exitDx=0;exitDy=0;entryX=0.961;entryY=0.984;entryDx=0;entryDy=0;entryPerimeter=0;" edge="1" parent="1" source="jeG6wxMHg7uKZulIMG_E-9" target="jeG6wxMHg7uKZulIMG_E-6">
          <mxGeometry width="50" height="50" relative="1" as="geometry">
            <mxPoint x="450" y="860" as="sourcePoint" />
            <mxPoint x="500" y="810" as="targetPoint" />
          </mxGeometry>
        </mxCell>
        <mxCell id="j4U6q4avKXnPzG7Y78zl-10" value="" style="endArrow=none;html=1;rounded=0;exitX=1;exitY=0.5;exitDx=0;exitDy=0;entryX=0;entryY=0.5;entryDx=0;entryDy=0;" edge="1" parent="1" source="jeG6wxMHg7uKZulIMG_E-6" target="jeG6wxMHg7uKZulIMG_E-13">
          <mxGeometry width="50" height="50" relative="1" as="geometry">
            <mxPoint x="450" y="840" as="sourcePoint" />
            <mxPoint x="500" y="790" as="targetPoint" />
          </mxGeometry>
        </mxCell>
        <mxCell id="j4U6q4avKXnPzG7Y78zl-11" value="" style="endArrow=none;html=1;rounded=0;exitX=1;exitY=0.5;exitDx=0;exitDy=0;entryX=0;entryY=0.5;entryDx=0;entryDy=0;" edge="1" parent="1" source="jeG6wxMHg7uKZulIMG_E-4" target="jeG6wxMHg7uKZulIMG_E-1">
          <mxGeometry width="50" height="50" relative="1" as="geometry">
            <mxPoint x="400" y="1170" as="sourcePoint" />
            <mxPoint x="450" y="1120" as="targetPoint" />
          </mxGeometry>
        </mxCell>
        <mxCell id="j4U6q4avKXnPzG7Y78zl-12" value="" style="endArrow=none;html=1;rounded=0;exitX=0.5;exitY=0;exitDx=0;exitDy=0;" edge="1" parent="1" source="jeG6wxMHg7uKZulIMG_E-2">
          <mxGeometry width="50" height="50" relative="1" as="geometry">
            <mxPoint x="350" y="1180" as="sourcePoint" />
            <mxPoint x="370" y="1170" as="targetPoint" />
          </mxGeometry>
        </mxCell>
        <mxCell id="j4U6q4avKXnPzG7Y78zl-13" value="" style="endArrow=none;html=1;rounded=0;exitX=0;exitY=0;exitDx=0;exitDy=0;entryX=0.75;entryY=1;entryDx=0;entryDy=0;" edge="1" parent="1" source="jeG6wxMHg7uKZulIMG_E-5" target="jeG6wxMHg7uKZulIMG_E-1">
          <mxGeometry width="50" height="50" relative="1" as="geometry">
            <mxPoint x="460" y="1200" as="sourcePoint" />
            <mxPoint x="510" y="1150" as="targetPoint" />
          </mxGeometry>
        </mxCell>
        <mxCell id="j4U6q4avKXnPzG7Y78zl-14" value="" style="endArrow=none;html=1;rounded=0;exitX=1;exitY=0.5;exitDx=0;exitDy=0;entryX=0;entryY=0.5;entryDx=0;entryDy=0;" edge="1" parent="1" source="jeG6wxMHg7uKZulIMG_E-1" target="jeG6wxMHg7uKZulIMG_E-3">
          <mxGeometry width="50" height="50" relative="1" as="geometry">
            <mxPoint x="460" y="1200" as="sourcePoint" />
            <mxPoint x="470" y="1150" as="targetPoint" />
          </mxGeometry>
        </mxCell>
        <mxCell id="OsqSOEb2yPT8V0qhrlLH-1" value="ID_Monitor" style="ellipse;whiteSpace=wrap;html=1;" vertex="1" parent="1">
          <mxGeometry x="177.5" y="817" width="110" height="30" as="geometry" />
        </mxCell>
        <mxCell id="OsqSOEb2yPT8V0qhrlLH-2" value="" style="endArrow=none;html=1;rounded=0;exitX=1;exitY=0.5;exitDx=0;exitDy=0;entryX=0;entryY=0.75;entryDx=0;entryDy=0;" edge="1" parent="1" source="OsqSOEb2yPT8V0qhrlLH-1" target="jeG6wxMHg7uKZulIMG_E-6">
          <mxGeometry width="50" height="50" relative="1" as="geometry">
            <mxPoint x="480" y="820" as="sourcePoint" />
            <mxPoint x="530" y="770" as="targetPoint" />
          </mxGeometry>
        </mxCell>
      </root>
    </mxGraphModel>
  </diagram>
</mxfile>
